<svg width="81" height="80" viewBox="0 0 81 80" fill="none" xmlns="http://www.w3.org/2000/svg">
<path d="M7.2758 33.2887C-13.1661 53.5255 15.6384 81.6811 53.7346 79.9214C87.1851 79.9214 88.1138 12.172 63.0261 2.49353C37.9383 -7.18495 27.7177 13.0519 7.2758 33.2887Z" fill="#D0E9FB"/>
<path d="M8.5455 22.3644C8.16569 19.4527 10.2055 16.5547 13.1015 15.8915L55.6988 6.13622C58.5948 5.473 61.2504 7.29574 61.6302 10.2074L67.1212 52.3022C67.501 55.2139 65.4612 58.112 62.5651 58.7752L19.9679 68.5304C17.0719 69.1937 14.4163 67.3709 14.0365 64.4592L8.5455 22.3644Z" fill="#FFDD80"/>
<path d="M8.5455 22.3644C8.16569 19.4527 10.2055 16.5547 13.1015 15.8915L55.6988 6.13622C58.5948 5.473 61.2504 7.29574 61.6302 10.2074L67.1212 52.3022C67.501 55.2139 65.4612 58.112 62.5651 58.7752L19.9679 68.5304C17.0719 69.1937 14.4163 67.3709 14.0365 64.4592L8.5455 22.3644Z" fill="url(#paint0_linear_819_13249)" fill-opacity="0.3"/>
<path d="M9.87884 22.3644C9.49903 19.4527 11.5388 16.5547 14.4348 15.8915L57.0321 6.13622C59.9281 5.473 62.5837 7.29574 62.9635 10.2074L68.4545 52.3022C68.8343 55.2139 66.7945 58.112 63.8985 58.7752L21.3012 68.5304C18.4052 69.1937 15.7496 67.3709 15.3698 64.4592L9.87884 22.3644Z" fill="#FFCD4D"/>
<path d="M9.87884 22.3644C9.49903 19.4527 11.5388 16.5547 14.4348 15.8915L57.0321 6.13622C59.9281 5.473 62.5837 7.29574 62.9635 10.2074L68.4545 52.3022C68.8343 55.2139 66.7945 58.112 63.8985 58.7752L21.3012 68.5304C18.4052 69.1937 15.7496 67.3709 15.3698 64.4592L9.87884 22.3644Z" fill="url(#paint1_linear_819_13249)" fill-opacity="0.3"/>
<path d="M10.6036 25.0331C10.0293 22.1203 11.9001 19.2214 14.7822 18.5582L57.1727 8.80293C60.0547 8.13969 62.8566 9.96332 63.4309 12.8761L71.7297 54.967C72.304 57.8798 70.4332 60.7788 67.5512 61.442L25.1607 71.1972C22.2786 71.8605 19.4767 70.0368 18.9024 67.124L10.6036 25.0331Z" fill="#FFECB2"/>
<path d="M10.6036 25.0331C10.0293 22.1203 11.9001 19.2214 14.7822 18.5582L57.1727 8.80293C60.0547 8.13969 62.8566 9.96332 63.4309 12.8761L71.7297 54.967C72.304 57.8798 70.4332 60.7788 67.5512 61.442L25.1607 71.1972C22.2786 71.8605 19.4767 70.0368 18.9024 67.124L10.6036 25.0331Z" fill="url(#paint2_linear_819_13249)" fill-opacity="0.3"/>
<path d="M11.9358 25.0331C11.3678 22.1203 13.2182 19.2214 16.0689 18.5582L57.9987 8.80293C60.8494 8.13969 63.6209 9.96332 64.1889 12.8761L72.3975 54.967C72.9656 57.8798 71.1151 60.7788 68.2644 61.442L26.3347 71.1972C23.4839 71.8605 20.7125 70.0368 20.1444 67.124L11.9358 25.0331Z" fill="#FFF9E5"/>
<path d="M11.9358 25.0331C11.3678 22.1203 13.2182 19.2214 16.0689 18.5582L57.9987 8.80293C60.8494 8.13969 63.6209 9.96332 64.1889 12.8761L72.3975 54.967C72.9656 57.8798 71.1151 60.7788 68.2644 61.442L26.3347 71.1972C23.4839 71.8605 20.7125 70.0368 20.1444 67.124L11.9358 25.0331Z" fill="url(#paint3_linear_819_13249)" fill-opacity="0.3"/>
<path d="M8.54526 22.1134C8.16745 19.1924 10.1965 16.285 13.0773 15.6197L57.0241 5.46961C59.643 4.86474 62.1106 6.32271 62.7913 8.87714L65.8333 20.2932L13.7175 32.5302C13.3263 32.6209 12.9305 32.6667 12.5376 32.6667H9.91024L8.54526 22.1134Z" fill="#00BFFF"/>
<path d="M8.54526 22.1134C8.16745 19.1924 10.1965 16.285 13.0773 15.6197L57.0241 5.46961C59.643 4.86474 62.1106 6.32271 62.7913 8.87714L65.8333 20.2932L13.7175 32.5302C13.3263 32.6209 12.9305 32.6667 12.5376 32.6667H9.91024L8.54526 22.1134Z" fill="url(#paint4_linear_819_13249)" fill-opacity="0.5"/>
<path d="M11.2667 22.2957C10.7041 19.4169 12.5715 16.546 15.4378 15.8834L57.5977 6.13747C60.464 5.47488 63.2437 7.27148 63.8064 10.1503L65.8333 20.5213L13.2937 32.6667L11.2667 22.2957Z" fill="#00BFFF"/>
<path d="M11.2667 22.2957C10.7041 19.4169 12.5715 16.546 15.4378 15.8834L57.5977 6.13747C60.464 5.47488 63.2437 7.27148 63.8064 10.1503L65.8333 20.5213L13.2937 32.6667L11.2667 22.2957Z" fill="url(#paint5_linear_819_13249)" fill-opacity="0.3"/>
<path d="M35.8202 33.3706C35.6616 32.6454 36.1379 31.9326 36.884 31.7784L43.6391 30.3829C44.3852 30.2287 45.1186 30.6917 45.2772 31.4169L46.4259 36.6693C46.5845 37.3945 46.1082 38.1073 45.3621 38.2615L38.607 39.657C37.8609 39.8111 37.1274 39.3482 36.9688 38.623L35.8202 33.3706Z" fill="#FFDD80"/>
<path d="M35.8202 33.3706C35.6616 32.6454 36.1379 31.9326 36.884 31.7784L43.6391 30.3829C44.3852 30.2287 45.1186 30.6917 45.2772 31.4169L46.4259 36.6693C46.5845 37.3945 46.1082 38.1073 45.3621 38.2615L38.607 39.657C37.8609 39.8111 37.1274 39.3482 36.9688 38.623L35.8202 33.3706Z" fill="url(#paint6_linear_819_13249)" fill-opacity="0.3"/>
<path d="M48.8622 30.5985C48.7036 29.8733 49.1799 29.1605 49.926 29.0063L56.6811 27.6108C57.4272 27.4566 58.1606 27.9196 58.3192 28.6448L59.4679 33.8972C59.6265 34.6224 59.1502 35.3352 58.4041 35.4894L51.649 36.8849C50.9029 37.039 50.1694 36.5761 50.0108 35.8509L48.8622 30.5985Z" fill="#FFDD80"/>
<path d="M48.8622 30.5985C48.7036 29.8733 49.1799 29.1605 49.926 29.0063L56.6811 27.6108C57.4272 27.4566 58.1606 27.9196 58.3192 28.6448L59.4679 33.8972C59.6265 34.6224 59.1502 35.3352 58.4041 35.4894L51.649 36.8849C50.9029 37.039 50.1694 36.5761 50.0108 35.8509L48.8622 30.5985Z" fill="url(#paint7_linear_819_13249)" fill-opacity="0.3"/>
<path d="M24.996 46.5764C24.8374 45.8512 25.3137 45.1384 26.0598 44.9842L32.8149 43.5887C33.561 43.4345 34.2944 43.8975 34.453 44.6227L35.6017 49.8751C35.7603 50.6003 35.284 51.3131 34.5378 51.4673L27.7828 52.8628C27.0367 53.0169 26.3032 52.554 26.1446 51.8288L24.996 46.5764Z" fill="#FFDD80"/>
<path d="M24.996 46.5764C24.8374 45.8512 25.3137 45.1384 26.0598 44.9842L32.8149 43.5887C33.561 43.4345 34.2944 43.8975 34.453 44.6227L35.6017 49.8751C35.7603 50.6003 35.284 51.3131 34.5378 51.4673L27.7828 52.8628C27.0367 53.0169 26.3032 52.554 26.1446 51.8288L24.996 46.5764Z" fill="url(#paint8_linear_819_13249)" fill-opacity="0.3"/>
<path d="M38.038 43.8042C37.8794 43.079 38.3557 42.3662 39.1018 42.212L45.8568 40.8165C46.603 40.6623 47.3364 41.1253 47.495 41.8505L48.6437 47.1028C48.8023 47.8281 48.326 48.5409 47.5798 48.6951L40.8248 50.0906C40.0786 50.2447 39.3452 49.7818 39.1866 49.0566L38.038 43.8042Z" fill="#00BFFF"/>
<path d="M38.038 43.8042C37.8794 43.079 38.3557 42.3662 39.1018 42.212L45.8568 40.8165C46.603 40.6623 47.3364 41.1253 47.495 41.8505L48.6437 47.1028C48.8023 47.8281 48.326 48.5409 47.5798 48.6951L40.8248 50.0906C40.0786 50.2447 39.3452 49.7818 39.1866 49.0566L38.038 43.8042Z" fill="url(#paint9_linear_819_13249)" fill-opacity="0.3"/>
<path d="M51.0799 41.0321C50.9213 40.3069 51.3976 39.5941 52.1438 39.4399L58.8988 38.0444C59.645 37.8902 60.3784 38.3532 60.537 39.0784L61.6857 44.3308C61.8443 45.056 61.368 45.7688 60.6218 45.923L53.8668 47.3185C53.1206 47.4726 52.3872 47.0097 52.2286 46.2845L51.0799 41.0321Z" fill="#FFDD80"/>
<path d="M51.0799 41.0321C50.9213 40.3069 51.3976 39.5941 52.1438 39.4399L58.8988 38.0444C59.645 37.8902 60.3784 38.3532 60.537 39.0784L61.6857 44.3308C61.8443 45.056 61.368 45.7688 60.6218 45.923L53.8668 47.3185C53.1206 47.4726 52.3872 47.0097 52.2286 46.2845L51.0799 41.0321Z" fill="url(#paint10_linear_819_13249)" fill-opacity="0.3"/>
<path d="M27.2137 57.01C27.0551 56.2848 27.5314 55.572 28.2776 55.4178L35.0326 54.0223C35.7788 53.8681 36.5122 54.3311 36.6708 55.0563L37.8195 60.3087C37.9781 61.0339 37.5018 61.7467 36.7556 61.9009L30.0006 63.2964C29.2544 63.4505 28.521 62.9876 28.3624 62.2624L27.2137 57.01Z" fill="#FFDD80"/>
<path d="M27.2137 57.01C27.0551 56.2848 27.5314 55.572 28.2776 55.4178L35.0326 54.0223C35.7788 53.8681 36.5122 54.3311 36.6708 55.0563L37.8195 60.3087C37.9781 61.0339 37.5018 61.7467 36.7556 61.9009L30.0006 63.2964C29.2544 63.4505 28.521 62.9876 28.3624 62.2624L27.2137 57.01Z" fill="url(#paint11_linear_819_13249)" fill-opacity="0.3"/>
<path d="M40.2557 54.2378C40.0971 53.5126 40.5734 52.7998 41.3196 52.6456L48.0746 51.2501C48.8208 51.0959 49.5542 51.5589 49.7128 52.2841L50.8615 57.5364C51.0201 58.2616 50.5438 58.9745 49.7976 59.1286L43.0426 60.5242C42.2964 60.6783 41.563 60.2154 41.4044 59.4902L40.2557 54.2378Z" fill="#FFDD80"/>
<path d="M40.2557 54.2378C40.0971 53.5126 40.5734 52.7998 41.3196 52.6456L48.0746 51.2501C48.8208 51.0959 49.5542 51.5589 49.7128 52.2841L50.8615 57.5364C51.0201 58.2616 50.5438 58.9745 49.7976 59.1286L43.0426 60.5242C42.2964 60.6783 41.563 60.2154 41.4044 59.4902L40.2557 54.2378Z" fill="url(#paint12_linear_819_13249)" fill-opacity="0.3"/>
<defs>
<linearGradient id="paint0_linear_819_13249" x1="22.7173" y1="71.3875" x2="25.2769" y2="52.3342" gradientUnits="userSpaceOnUse">
<stop stop-color="#FF4773"/>
<stop offset="1" stop-color="#FF4773" stop-opacity="0"/>
</linearGradient>
<linearGradient id="paint1_linear_819_13249" x1="24.0503" y1="71.3875" x2="35.5602" y2="24.6745" gradientUnits="userSpaceOnUse">
<stop stop-color="#FF4773"/>
<stop offset="1" stop-color="#FF4773" stop-opacity="0"/>
</linearGradient>
<linearGradient id="paint2_linear_819_13249" x1="28.1246" y1="74.0544" x2="30.6167" y2="55.1529" gradientUnits="userSpaceOnUse">
<stop stop-color="#FF4773"/>
<stop offset="1" stop-color="#FF4773" stop-opacity="0"/>
</linearGradient>
<linearGradient id="paint3_linear_819_13249" x1="10.6815" y1="89.1586" x2="33.676" y2="41.7409" gradientUnits="userSpaceOnUse">
<stop stop-color="#FF4773"/>
<stop offset="1" stop-color="#FF4773" stop-opacity="0"/>
</linearGradient>
<linearGradient id="paint4_linear_819_13249" x1="15.2228" y1="31.6251" x2="11.0901" y2="13.5518" gradientUnits="userSpaceOnUse">
<stop stop-color="#107ACA"/>
<stop offset="1" stop-color="#107ACA" stop-opacity="0"/>
</linearGradient>
<linearGradient id="paint5_linear_819_13249" x1="17.5724" y1="53.0647" x2="7.53002" y2="35.6735" gradientUnits="userSpaceOnUse">
<stop stop-color="#107ACA"/>
<stop offset="1" stop-color="#107ACA" stop-opacity="0"/>
</linearGradient>
<linearGradient id="paint6_linear_819_13249" x1="33.5326" y1="45.5088" x2="37.3948" y2="29.0196" gradientUnits="userSpaceOnUse">
<stop stop-color="#FF4773"/>
<stop offset="1" stop-color="#FF4773" stop-opacity="0"/>
</linearGradient>
<linearGradient id="paint7_linear_819_13249" x1="46.5746" y1="42.7367" x2="50.4368" y2="26.2475" gradientUnits="userSpaceOnUse">
<stop stop-color="#FF4773"/>
<stop offset="1" stop-color="#FF4773" stop-opacity="0"/>
</linearGradient>
<linearGradient id="paint8_linear_819_13249" x1="22.7084" y1="58.7146" x2="26.5706" y2="42.2254" gradientUnits="userSpaceOnUse">
<stop stop-color="#FF4773"/>
<stop offset="1" stop-color="#FF4773" stop-opacity="0"/>
</linearGradient>
<linearGradient id="paint9_linear_819_13249" x1="26.4329" y1="66.8432" x2="48.7998" y2="61.5986" gradientUnits="userSpaceOnUse">
<stop stop-color="#107ACA"/>
<stop offset="1" stop-color="#107ACA" stop-opacity="0"/>
</linearGradient>
<linearGradient id="paint10_linear_819_13249" x1="48.7922" y1="53.1703" x2="52.6544" y2="36.6811" gradientUnits="userSpaceOnUse">
<stop stop-color="#FF4773"/>
<stop offset="1" stop-color="#FF4773" stop-opacity="0"/>
</linearGradient>
<linearGradient id="paint11_linear_819_13249" x1="24.926" y1="69.1482" x2="28.7882" y2="52.659" gradientUnits="userSpaceOnUse">
<stop stop-color="#FF4773"/>
<stop offset="1" stop-color="#FF4773" stop-opacity="0"/>
</linearGradient>
<linearGradient id="paint12_linear_819_13249" x1="37.968" y1="66.376" x2="41.8302" y2="49.8868" gradientUnits="userSpaceOnUse">
<stop stop-color="#FF4773"/>
<stop offset="1" stop-color="#FF4773" stop-opacity="0"/>
</linearGradient>
</defs>
</svg>
