<svg width="81" height="80" viewBox="0 0 81 80" fill="none" xmlns="http://www.w3.org/2000/svg">
<path d="M7.2758 33.2887C-13.1661 53.5255 15.6384 81.6811 53.7346 79.9214C87.1851 79.9214 88.1138 12.172 63.0261 2.49353C37.9383 -7.18495 27.7177 13.0519 7.2758 33.2887Z" fill="#D0E9FB"/>
<path d="M16.5 13.3334C7.66345 13.3334 0.5 20.4442 0.5 29.2159C0.5 37.7139 7.22343 44.6532 15.678 45.0779L19.0453 50.8081C19.4569 51.5085 20.4764 51.5085 20.888 50.8081L24.2432 45.0985H37.8333C46.6699 45.0985 53.8333 37.9876 53.8333 29.2159C53.8333 20.4442 46.6699 13.3334 37.8333 13.3334H16.5Z" fill="#FFDD80"/>
<path d="M16.5 13.3334C7.66345 13.3334 0.5 20.4442 0.5 29.2159C0.5 37.7139 7.22343 44.6532 15.678 45.0779L19.0453 50.8081C19.4569 51.5085 20.4764 51.5085 20.888 50.8081L24.2432 45.0985H37.8333C46.6699 45.0985 53.8333 37.9876 53.8333 29.2159C53.8333 20.4442 46.6699 13.3334 37.8333 13.3334H16.5Z" fill="url(#paint0_linear_819_13548)" fill-opacity="0.3"/>
<path d="M59.1667 24C68.0032 24 75.1667 31.1109 75.1667 39.8825C75.1667 48.3806 68.4432 55.3198 59.9887 55.7445L56.6214 61.4747C56.2098 62.1751 55.1902 62.1751 54.7786 61.4747L51.4234 55.7651H37.8333C28.9968 55.7651 21.8333 48.6542 21.8333 39.8825C21.8333 31.1109 28.9968 24 37.8333 24H59.1667Z" fill="#00BFFF"/>
<path d="M59.1667 24C68.0032 24 75.1667 31.1109 75.1667 39.8825C75.1667 48.3806 68.4432 55.3198 59.9887 55.7445L56.6214 61.4747C56.2098 62.1751 55.1902 62.1751 54.7786 61.4747L51.4234 55.7651H37.8333C28.9968 55.7651 21.8333 48.6542 21.8333 39.8825C21.8333 31.1109 28.9968 24 37.8333 24H59.1667Z" fill="url(#paint1_linear_819_13548)" fill-opacity="0.3"/>
<path d="M57.8333 40C57.8333 42.2091 59.6242 44 61.8333 44C64.0425 44 65.8333 42.2091 65.8333 40C65.8333 37.7909 64.0425 36 61.8333 36C59.6242 36 57.8333 37.7909 57.8333 40Z" fill="#E5F9FF"/>
<path d="M44.5 40C44.5 42.2091 46.2909 44 48.5 44C50.7091 44 52.5 42.2091 52.5 40C52.5 37.7909 50.7091 36 48.5 36C46.2909 36 44.5 37.7909 44.5 40Z" fill="#E5F9FF"/>
<path d="M31.1667 40C31.1667 42.2091 32.9575 44 35.1667 44C37.3758 44 39.1667 42.2091 39.1667 40C39.1667 37.7909 37.3758 36 35.1667 36C32.9575 36 31.1667 37.7909 31.1667 40Z" fill="#E5F9FF"/>
<defs>
<linearGradient id="paint0_linear_819_13548" x1="0.500003" y1="63.0491" x2="-11.1564" y2="45.7437" gradientUnits="userSpaceOnUse">
<stop stop-color="#FF4773"/>
<stop offset="1" stop-color="#FF4773" stop-opacity="0"/>
</linearGradient>
<linearGradient id="paint1_linear_819_13548" x1="50.9166" y1="66.6844" x2="25.6707" y2="41.3068" gradientUnits="userSpaceOnUse">
<stop stop-color="#107ACA"/>
<stop offset="1" stop-color="#107ACA" stop-opacity="0"/>
</linearGradient>
</defs>
</svg>
