<svg width="81" height="80" viewBox="0 0 81 80" fill="none" xmlns="http://www.w3.org/2000/svg">
<path d="M47.2113 6.7758C26.9745 -13.6661 -1.18109 15.1384 0.578625 53.2346C0.578623 86.6851 68.328 87.6138 78.0065 62.5261C87.685 37.4383 67.4481 27.2177 47.2113 6.7758Z" fill="#D0E9FB"/>
<path fill-rule="evenodd" clip-rule="evenodd" d="M40.8834 21.0391C37.0726 17.6711 26.9593 13.3028 16.8672 22.6184C16.7693 22.7087 16.679 22.8091 16.5934 22.9115C16.5645 22.946 16.5322 22.9843 16.4968 23.0264C14.5677 25.3138 3.26175 38.7204 24.9341 60.2444C28.458 63.5161 37.2915 70.581 44.4342 72.6666L44.4333 72.6533L44.4367 72.6664C51.2244 69.5904 59.0049 61.3444 62.0466 57.6059C80.5617 33.2247 67.5306 21.5484 65.3072 19.5562C65.2663 19.5196 65.2291 19.4862 65.1958 19.4561C65.097 19.3669 64.9938 19.2802 64.8845 19.2046C53.6155 11.4076 44.1985 17.1645 40.8859 21.0389L40.8843 21.0519L40.8834 21.0391Z" fill="#FFCCD0"/>
<path fill-rule="evenodd" clip-rule="evenodd" d="M40.8834 21.0391C37.0726 17.6711 26.9593 13.3028 16.8672 22.6184C16.7693 22.7087 16.679 22.8091 16.5934 22.9115C16.5645 22.946 16.5322 22.9843 16.4968 23.0264C14.5677 25.3138 3.26175 38.7204 24.9341 60.2444C28.458 63.5161 37.2915 70.581 44.4342 72.6666L44.4333 72.6533L44.4367 72.6664C51.2244 69.5904 59.0049 61.3444 62.0466 57.6059C80.5617 33.2247 67.5306 21.5484 65.3072 19.5562C65.2663 19.5196 65.2291 19.4862 65.1958 19.4561C65.097 19.3669 64.9938 19.2802 64.8845 19.2046C53.6155 11.4076 44.1985 17.1645 40.8859 21.0389L40.8843 21.0519L40.8834 21.0391Z" fill="url(#paint0_linear_819_13368)" fill-opacity="0.3"/>
<path fill-rule="evenodd" clip-rule="evenodd" d="M41.9299 19.2367C37.8879 16.1765 27.4752 12.5707 18.0248 22.4843C17.9331 22.5804 17.8497 22.686 17.7712 22.7932C17.7447 22.8293 17.715 22.8694 17.6825 22.9135C15.911 25.3092 5.5281 39.3503 28.6785 59.0956C32.427 62.0808 41.7454 68.4409 49.0308 70L49.029 69.9869L49.0333 69.9996C55.6088 66.4834 62.8214 57.7891 65.6057 53.8814C82.4422 28.4899 68.6094 17.8681 66.2492 16.0558C66.2059 16.0225 66.1664 15.9921 66.131 15.9647C66.026 15.8834 65.9169 15.8051 65.8025 15.738C53.9984 8.82557 44.9782 15.1754 41.9324 19.2364L41.9317 19.2493L41.9299 19.2367Z" fill="#FF4773"/>
<path fill-rule="evenodd" clip-rule="evenodd" d="M41.9299 19.2367C37.8879 16.1765 27.4752 12.5707 18.0248 22.4843C17.9331 22.5804 17.8497 22.686 17.7712 22.7932C17.7447 22.8293 17.715 22.8694 17.6825 22.9135C15.911 25.3092 5.5281 39.3503 28.6785 59.0956C32.427 62.0808 41.7454 68.4409 49.0308 70L49.029 69.9869L49.0333 69.9996C55.6088 66.4834 62.8214 57.7891 65.6057 53.8814C82.4422 28.4899 68.6094 17.8681 66.2492 16.0558C66.2059 16.0225 66.1664 15.9921 66.131 15.9647C66.026 15.8834 65.9169 15.8051 65.8025 15.738C53.9984 8.82557 44.9782 15.1754 41.9324 19.2364L41.9317 19.2493L41.9299 19.2367Z" fill="url(#paint1_linear_819_13368)" fill-opacity="0.3"/>
<path d="M43.2854 34.085L42.205 43.1491C41.937 45.3981 39.7224 46.8818 37.7827 46.1118L30.0552 43.0443L23.0743 49.8839C22.6158 50.3331 22.0545 50.6418 21.4565 50.7738L8.40247 53.6548C7.1713 53.9265 6.03125 53.0976 5.85607 51.8035C5.6809 50.5094 6.53695 49.24 7.76811 48.9683L20.4375 46.1722L27.7598 38.9982C28.6856 38.0912 29.9846 37.7961 31.101 38.2393L37.9635 40.9634L39.5282 27.8352C39.9509 24.288 44.552 23.4469 45.6642 26.7132L53.0063 48.2757L56.5209 40.3051C56.9906 39.2398 57.8564 38.5067 58.8367 38.2706L73.1593 35.1091L73.8333 40.0885L60.458 43.0403L55.6707 53.2249C54.445 56.0047 50.763 56.0455 49.8246 53.2895L43.2854 34.085Z" fill="#75DDFF"/>
<path d="M43.2854 34.085L42.205 43.1491C41.937 45.3981 39.7224 46.8818 37.7827 46.1118L30.0552 43.0443L23.0743 49.8839C22.6158 50.3331 22.0545 50.6418 21.4565 50.7738L8.40247 53.6548C7.1713 53.9265 6.03125 53.0976 5.85607 51.8035C5.6809 50.5094 6.53695 49.24 7.76811 48.9683L20.4375 46.1722L27.7598 38.9982C28.6856 38.0912 29.9846 37.7961 31.101 38.2393L37.9635 40.9634L39.5282 27.8352C39.9509 24.288 44.552 23.4469 45.6642 26.7132L53.0063 48.2757L56.5209 40.3051C56.9906 39.2398 57.8564 38.5067 58.8367 38.2706L73.1593 35.1091L73.8333 40.0885L60.458 43.0403L55.6707 53.2249C54.445 56.0047 50.763 56.0455 49.8246 53.2895L43.2854 34.085Z" fill="url(#paint2_linear_819_13368)" fill-opacity="0.3"/>
<ellipse cx="74.5237" cy="37.357" rx="5.33333" ry="5.33333" transform="rotate(-8 74.5237 37.357)" fill="#FFCD4D"/>
<ellipse cx="74.5237" cy="37.357" rx="5.33333" ry="5.33333" transform="rotate(-8 74.5237 37.357)" fill="url(#paint3_linear_819_13368)" fill-opacity="0.3"/>
<defs>
<linearGradient id="paint0_linear_819_13368" x1="27.6839" y1="77.6609" x2="10.3483" y2="40.824" gradientUnits="userSpaceOnUse">
<stop stop-color="#FF4773"/>
<stop offset="1" stop-color="#FF4773" stop-opacity="0"/>
</linearGradient>
<linearGradient id="paint1_linear_819_13368" x1="49.0356" y1="69.7915" x2="44.1984" y2="33.948" gradientUnits="userSpaceOnUse">
<stop stop-color="#107ACA"/>
<stop offset="1" stop-color="#107ACA" stop-opacity="0"/>
</linearGradient>
<linearGradient id="paint2_linear_819_13368" x1="17.1609" y1="65.4132" x2="52.99" y2="69.3491" gradientUnits="userSpaceOnUse">
<stop stop-color="#107ACA"/>
<stop offset="1" stop-color="#107ACA" stop-opacity="0"/>
</linearGradient>
<linearGradient id="paint3_linear_819_13368" x1="77.7687" y1="42.8383" x2="72.2203" y2="35.8766" gradientUnits="userSpaceOnUse">
<stop stop-color="#FF4773"/>
<stop offset="1" stop-color="#FF4773" stop-opacity="0"/>
</linearGradient>
</defs>
</svg>
